<svg xmlns:xlink="http://www.w3.org/1999/xlink" xmlns="http://www.w3.org/2000/svg"
  viewBox="0 0 370.04347826086956 60.362318840579704"
>
  <defs id="SvgjsDefs5642">
    <linearGradient id="SvgjsLinearGradient5647">
      <stop id="SvgjsStop5648" stop-color="#00ff8f" offset="0"></stop>
      <stop id="SvgjsStop5649" stop-color="#00a1ff" offset="1"></stop>
    </linearGradient>
    <linearGradient id="SvgjsLinearGradient5647">
      <stop id="SvgjsStop5648" stop-color="#00ff8f" offset="0"></stop>
      <stop id="SvgjsStop5649" stop-color="#00a1ff" offset="1"></stop>
    </linearGradient>
    <linearGradient id="SvgjsLinearGradient5647">
      <stop id="SvgjsStop5648" stop-color="#00ff8f" offset="0"></stop>
      <stop id="SvgjsStop5649" stop-color="#00a1ff" offset="1"></stop>
    </linearGradient>
    <linearGradient id="SvgjsLinearGradient5647">
      <stop id="SvgjsStop5648" stop-color="#00ff8f" offset="0"></stop>
      <stop id="SvgjsStop5649" stop-color="#00a1ff" offset="1"></stop>
    </linearGradient>
    <linearGradient id="SvgjsLinearGradient5647">
      <stop id="SvgjsStop5648" stop-color="#00ff8f" offset="0"></stop>
      <stop id="SvgjsStop5649" stop-color="#00a1ff" offset="1"></stop>
    </linearGradient>
  </defs>
  <g id="SvgjsG5643" featurekey="Df7oLJ-0"
    transform="matrix(0.6159420289855072,0,0,0.6159420289855072,-12.318840579710145,-0.6159420289855072)"
    fill="url(&quot;#SvgjsLinearGradient5647&quot;)">
    <circle xmlns="http://www.w3.org/2000/svg" cx="64" cy="30" r="4"
      fill="url(&quot;#SvgjsLinearGradient5647&quot;)"></circle>
    <circle xmlns="http://www.w3.org/2000/svg" cx="36" cy="30" r="4"
      fill="url(&quot;#SvgjsLinearGradient5647&quot;)"></circle>
    <path xmlns="http://www.w3.org/2000/svg"
      d="M55,64c0-3.3,2.7-6,6-6v10c0,10.5,8.5,19,19,19V10c0,0-10-9-30.1-9C29.9,1,20,10,20,10v47c0,23.2,18.8,42,42,42h18v-6  c-13.8,0-25-11.2-25-25V64z M49.9,51C35.1,51,26,43,26,38V14c23,0,23,25,24,28c1-3,1-28,24-28v24C74,42.1,64.8,51,49.9,51z"
      fill="url(&quot;#SvgjsLinearGradient5647&quot;)"></path>
  </g>
  <g id="SvgjsG5644" featurekey="Ua4uQk-0"
    transform="matrix(3.894544525473446,0,0,3.894544525473446,49.67825352508524,-21.781880598811874)"
    fill="#099FFF">
    <path
      d="M9.38 14.780000000000001 c-0.28 0.58 -0.68 1.02 -1.24 1.28 l1.68 3.7 c0.06 0.12 -0.02 0.24 -0.14 0.24 l-2.46 0 c-0.08 0 -0.12 -0.04 -0.14 -0.1 l-1.56 -3.4 l-1.02 0 l0 3.32 c0 0.1 -0.08 0.18 -0.18 0.18 l-2.3 0 c-0.08 0 -0.14 -0.08 -0.14 -0.18 l0 -12.84 c0 -0.1 0.06 -0.18 0.14 -0.18 l4.16 0 c2.22 0 3.56 1.26 3.56 3.6 l0 2.52 c0 0.7 -0.12 1.36 -0.36 1.86 z M7.12 12.3 l0 -1.3 c0 -1.4 -0.52 -1.54 -2.04 -1.54 l-0.58 0 l0 4.42 l0.58 0 c1.26 0 2 -0.02 2.04 -1.58 z M3.34 18.78 l0 -3.42 l2.88 0 l1.68 3.46 c0.04 0.1 0.28 0.06 0.22 -0.12 l-1.68 -3.4 c1.56 -0.22 2.1 -1.04 2.1 -2.52 l0 -2.5 c0 -2.2 -2 -2.38 -2.62 -2.38 l-2.7 0 c-0.04 0 -0.12 0.06 -0.12 0.12 l0 10.76 c0 0.14 0.24 0.14 0.24 0 z M8.3 10.28 l0 2.5 c0 2.04 -1.3 2.32 -2.56 2.32 l-2.4 0 l0 -6.94 l2.58 0 c2.16 0 2.38 1.46 2.38 2.12 z M13.440000000000001 20 c-0.1 0 -0.16 -0.08 -0.16 -0.18 l0 -12.84 c0 -0.1 0.06 -0.18 0.16 -0.18 l6.8 0 c0.1 0 0.18 0.08 0.18 0.18 l0 2.14 c0 0.1 -0.08 0.18 -0.18 0.18 l-4.32 0 l0 2.72 l3.36 0 c0.1 0 0.16 0.08 0.16 0.18 l0 2.18 c0 0.1 -0.06 0.18 -0.16 0.18 l-3.36 0 l0 2.94 l4.32 0 c0.1 0 0.18 0.08 0.18 0.18 l0 2.14 c0 0.1 -0.08 0.18 -0.18 0.18 l-6.8 0 z M14.440000000000001 8.06 l0 10.64 c0 0.12 0.08 0.16 0.16 0.16 l4.6 0 c0.18 0 0.14 -0.24 0 -0.24 l-4.5 0 l0 -5.22 l3.68 0 c0.12 0 0.12 -0.28 0 -0.28 l-3.68 0 l0 -4.96 l4.5 0 c0.14 0 0.18 -0.26 0 -0.26 l-4.6 0 c-0.08 0 -0.16 0.06 -0.16 0.16 z M28.3 11.9 c1.52 0.72 3.5 1.86 3.5 3.92 c0 0.6 -0.1 1.76 -0.76 2.74 c-0.74 1.1 -1.9 1.64 -3.5 1.64 c-1.7 0 -3.68 -0.82 -4.3 -2.68 c-0.02 -0.06 0 -0.12 0.06 -0.16 l1.84 -1.58 c0.08 -0.06 0.2 -0.06 0.26 0.04 c0.04 0.1 0.12 0.26 0.22 0.46 c0.3 0.62 1.02 1.24 1.82 1.24 c0.62 0 1.46 -0.34 1.46 -1.3 c0 -0.92 -1.26 -1.44 -2.04 -1.74 c-0.9 -0.36 -1.82 -0.82 -2.6 -1.5 c-0.82 -0.76 -1.22 -1.6 -1.22 -2.6 c0 -2.5 2.3 -3.76 4.48 -3.76 c1.72 0 3 0.9 3.84 2.68 c0.04 0.08 0 0.18 -0.06 0.22 l-1.78 1.24 c-0.08 0.04 -0.12 0.04 -0.2 -0.06 c-0.68 -0.98 -1.28 -1.44 -2.08 -1.44 c-0.42 0 -1.4 0.16 -1.4 0.9 c0 0.9 1.66 1.36 2.46 1.74 z M24.660000000000004 17.42 c0.5 1 1.88 1.58 3 1.58 c1.46 0 2.64 -1 2.8 -2.52 c0.2 -1.86 -1.26 -2.66 -2.7 -3.38 l-0.64 -0.28 c-1.48 -0.66 -2.56 -1.16 -2.56 -2.54 c0 -1.52 1.4 -2.22 2.78 -2.22 c1.26 0 1.92 0.74 2.26 1.2 c0.12 0.16 0.32 0.02 0.2 -0.14 c-0.34 -0.42 -1.06 -1.3 -2.46 -1.3 c-1.58 0 -3.02 0.78 -3.02 2.46 c0 1.5 1.2 2.08 2.72 2.78 l0.62 0.3 c1.98 0.94 2.7 1.82 2.54 3.1 c-0.3 2.04 -1.86 2.3 -2.54 2.3 c-1.5 0 -2.5 -0.9 -2.8 -1.46 c-0.1 -0.1 -0.24 0 -0.2 0.12 z M36 8 l0 10.78 c0 0.14 0.24 0.18 0.24 0 l0 -5.38 l3.68 0 c0.2 0 0.2 -0.28 0 -0.28 l-3.68 0 l0 -4.96 l4.48 0 c0.14 0 0.18 -0.26 0 -0.26 l-4.6 0 c-0.06 0 -0.12 0.02 -0.12 0.1 z M37.260000000000005 20 l-2.3 0 c-0.1 0 -0.16 -0.08 -0.16 -0.18 l0 -12.84 c0 -0.1 0.06 -0.18 0.16 -0.18 l6.8 0 c0.1 0 0.18 0.08 0.18 0.18 l0 2.14 c0 0.1 -0.08 0.18 -0.18 0.18 l-4.32 0 l0 2.72 l3.36 0 c0.1 0 0.16 0.08 0.16 0.18 l0 2.18 c0 0.1 -0.06 0.18 -0.16 0.18 l-3.36 0 l0 5.26 c0 0.1 -0.08 0.18 -0.18 0.18 z M49.08 6.619999999999999 c1.72 0 2.92 0.38 3.68 1.2 c0.6 0.66 0.88 1.6 0.88 2.94 l0 5.26 c0 1.38 -0.28 2.34 -0.88 2.98 c-0.78 0.8 -1.96 1.2 -3.68 1.2 c-1.78 0 -2.94 -0.4 -3.7 -1.2 c-0.58 -0.64 -0.9 -1.6 -0.9 -2.98 l0 -5.26 c0 -1.34 0.32 -2.28 0.9 -2.96 c0.78 -0.8 1.96 -1.18 3.7 -1.18 z M50.98 15.42 l0 -4 c0 -1.76 -0.94 -2.12 -1.8 -2.12 l-0.24 0 c-1.28 0 -1.78 0.82 -1.78 2.12 l0 4 c0 1.76 0.94 2.14 1.78 2.14 l0.24 0 c1.28 0 1.78 -0.86 1.8 -2.14 z M45.74 10.9 l0 4.96 c0 0.94 0.24 1.72 0.8 2.3 c0.52 0.52 1.32 0.8 2.3 0.8 l0.52 0 c1.88 0 3.1 -1.2 3.1 -3.1 l0 -4.96 c0 -2.04 -1.08 -3.14 -3.1 -3.14 l-0.52 0 c-2.04 0 -3.1 1.1 -3.1 3.14 z M49.36 18.7 l-0.52 0 c-0.94 0 -1.64 -0.24 -2.14 -0.74 s-0.76 -1.2 -0.76 -2.1 l0 -4.96 c0 -1.9 1.02 -2.9 2.9 -2.9 l0.52 0 c1.9 0 2.84 0.98 2.84 2.9 l0 4.96 c0 0.84 -0.26 1.6 -0.8 2.12 c-0.52 0.44 -1.22 0.72 -2.04 0.72 z M59.58 6.800000000000001 c0.1 0 0.18 0.08 0.18 0.18 l0 10.5 l4.32 0 c0.1 0 0.18 0.08 0.18 0.18 l0 2.16 c0 0.1 -0.08 0.18 -0.18 0.18 l-6.78 0 c-0.1 0 -0.16 -0.08 -0.16 -0.18 l0 -12.84 c0 -0.1 0.06 -0.18 0.16 -0.18 l2.28 0 z M58.339999999999996 8.02 l0 10.76 c0 0.04 0.04 0.1 0.12 0.1 l4.62 0 c0.16 0 0.16 -0.26 0 -0.26 l-4.52 0 l0 -10.6 c0 -0.14 -0.22 -0.16 -0.22 0 z M67.22 20 c-0.1 0 -0.16 -0.08 -0.16 -0.18 l0 -12.84 c0 -0.1 0.06 -0.18 0.16 -0.18 l2.28 0 c0.1 0 0.18 0.08 0.18 0.18 l0 12.84 c0 0.1 -0.08 0.18 -0.18 0.18 l-2.28 0 z M68.25999999999999 8 l0 10.78 c0 0.18 0.22 0.18 0.22 0 l0 -10.78 c0 -0.14 -0.22 -0.14 -0.22 0 z M77.69999999999999 6.619999999999999 c1.72 0 2.92 0.38 3.68 1.2 c0.6 0.66 0.88 1.6 0.88 2.94 l0 5.26 c0 1.38 -0.28 2.34 -0.88 2.98 c-0.78 0.8 -1.96 1.2 -3.68 1.2 c-1.78 0 -2.94 -0.4 -3.7 -1.2 c-0.58 -0.64 -0.9 -1.6 -0.9 -2.98 l0 -5.26 c0 -1.34 0.32 -2.28 0.9 -2.96 c0.78 -0.8 1.96 -1.18 3.7 -1.18 z M79.6 15.42 l0 -4 c0 -1.76 -0.94 -2.12 -1.8 -2.12 l-0.24 0 c-1.28 0 -1.78 0.82 -1.78 2.12 l0 4 c0 1.76 0.94 2.14 1.78 2.14 l0.24 0 c1.28 0 1.78 -0.86 1.8 -2.14 z M74.35999999999999 10.9 l0 4.96 c0 0.94 0.24 1.72 0.8 2.3 c0.52 0.52 1.32 0.8 2.3 0.8 l0.52 0 c1.88 0 3.1 -1.2 3.1 -3.1 l0 -4.96 c0 -2.04 -1.08 -3.14 -3.1 -3.14 l-0.52 0 c-2.04 0 -3.1 1.1 -3.1 3.14 z M77.97999999999999 18.7 l-0.52 0 c-0.94 0 -1.64 -0.24 -2.14 -0.74 s-0.76 -1.2 -0.76 -2.1 l0 -4.96 c0 -1.9 1.02 -2.9 2.9 -2.9 l0.52 0 c1.9 0 2.84 0.98 2.84 2.9 l0 4.96 c0 0.84 -0.26 1.6 -0.8 2.12 c-0.52 0.44 -1.22 0.72 -2.04 0.72 z"
      fill="#099FFF"></path>
  </g>
</svg>