<svg xmlns:xlink="http://www.w3.org/1999/xlink" xmlns="http://www.w3.org/2000/svg"
  viewBox="0 0 370.3170731707316 69.71544715447153">
  <defs id="SvgjsDefs4524"></defs>
  <g id="SvgjsG4525" featurekey="Df7oLJ-0"
    transform="matrix(0.711382113821138,0,0,0.711382113821138,-14.22764227642276,-0.711382113821138)"
    fill="#000000">
    <circle xmlns="http://www.w3.org/2000/svg" cx="64" cy="30" r="4"></circle>
    <circle xmlns="http://www.w3.org/2000/svg" cx="36" cy="30" r="4"></circle>
    <path xmlns="http://www.w3.org/2000/svg"
      d="M55,64c0-3.3,2.7-6,6-6v10c0,10.5,8.5,19,19,19V10c0,0-10-9-30.1-9C29.9,1,20,10,20,10v47c0,23.2,18.8,42,42,42h18v-6  c-13.8,0-25-11.2-25-25V64z M49.9,51C35.1,51,26,43,26,38V14c23,0,23,25,24,28c1-3,1-28,24-28v24C74,42.1,64.8,51,49.9,51z"></path>
  </g>
  <g id="SvgjsG4526" featurekey="Ua4uQk-0"
    transform="matrix(3.937942587407994,0,0,3.937942587407994,58.27446870733467,-16.07634221022555)"
    fill="#000000">
    <path
      d="M9 20 l-2.86 -4.58 l-1.72 0 l0 4.58 l-3.22 0 l0 -14 l4.98 0 c3.14 0 5.22 1.9 5.22 4.82 c0 1.86 -0.88 3.26 -2.36 3.98 l3.36 5.2 l-3.4 0 z M4.42 8.96 l0 3.72 l1.56 0 c1.3 0 2.2 -0.46 2.2 -1.86 c0 -1.38 -0.9 -1.86 -2.2 -1.86 l-1.56 0 z M19.18 9.42 c2.36 0 5.66 1.78 5 6.48 l-7.26 0 c0.36 1.08 1.3 1.64 2.56 1.64 c1.28 0 1.68 -0.28 2.4 -0.58 l1.74 1.68 c-0.92 0.9 -2.16 1.56 -4.26 1.56 c-2.58 0 -5.66 -1.78 -5.66 -5.36 c0 -3.64 3.12 -5.42 5.48 -5.42 z M19.18 12.120000000000001 c-0.9 0 -1.82 0.52 -2.22 1.56 l4.42 0 c-0.32 -1.04 -1.3 -1.56 -2.2 -1.56 z M30.92 12.879999999999999 c-0.28 -0.72 -0.7 -0.96 -1.16 -0.96 c-0.42 0 -0.84 0.24 -0.84 0.64 c0 0.38 0.24 0.6 0.7 0.76 l1.32 0.46 c1.48 0.54 2.98 1.08 2.98 3.16 c0 2.1 -2.1 3.3 -4.26 3.3 c-1.94 0 -3.76 -1.14 -4.2 -2.96 l2.48 -0.78 c0.26 0.58 0.72 1.24 1.72 1.24 c0.68 0 1.12 -0.44 1.12 -0.84 c0 -0.2 -0.16 -0.46 -0.66 -0.66 l-1.22 -0.44 c-2.08 -0.76 -3.06 -1.82 -3.06 -3.3 c0 -1.94 1.8 -3.08 3.78 -3.08 c2.02 0 3.36 1.1 3.96 2.76 z M44.72 8.94 l-5.68 0 l0 2.66 l4.66 0 l0 2.74 l-4.66 0 l0 5.66 l-3.32 0 l0 -14 l9 0 l0 2.94 z M51 9.42 c2.36 0 5.48 1.78 5.48 5.42 c0 3.66 -3.12 5.36 -5.48 5.36 s-5.48 -1.7 -5.48 -5.36 c0 -3.64 3.12 -5.42 5.48 -5.42 z M51 12.2 c-1.2 0 -2.42 0.92 -2.42 2.64 c0 1.66 1.22 2.58 2.42 2.58 s2.44 -0.92 2.44 -2.58 c0 -1.72 -1.24 -2.64 -2.44 -2.64 z M61.36 5.859999999999999 l0 14.14 l-3.16 0 l0 -14.14 l3.16 0 z M66.56 5.859999999999999 l0 2.66 l-3.16 0 l0 -2.66 l3.16 0 z M66.56 9.6 l0 10.4 l-3.16 0 l0 -10.4 l3.16 0 z M73.75999999999999 9.42 c2.36 0 5.48 1.78 5.48 5.42 c0 3.66 -3.12 5.36 -5.48 5.36 s-5.48 -1.7 -5.48 -5.36 c0 -3.64 3.12 -5.42 5.48 -5.42 z M73.75999999999999 12.2 c-1.2 0 -2.42 0.92 -2.42 2.64 c0 1.66 1.22 2.58 2.42 2.58 s2.44 -0.92 2.44 -2.58 c0 -1.72 -1.24 -2.64 -2.44 -2.64 z"></path>
  </g>
</svg>